<svg width="42" height="40" viewBox="0 0 42 40" fill="none" xmlns="http://www.w3.org/2000/svg">
<g clip-path="url(#clip0_46_335)">
<path d="M18.2022 8.62081C18.2022 6.96414 17.0085 6.77532 16.0495 6.62383C15.0042 6.45871 14.4128 6.31512 14.4128 5.29204C14.4128 4.43337 15.2044 4.12825 15.8824 4.12825C16.2203 4.11584 16.5559 4.19491 16.8616 4.35893C17.1674 4.52295 17.4344 4.76723 17.6407 5.07163L18.1321 4.62076C17.9111 4.29774 17.6362 4.02756 17.323 3.82574C17.0099 3.62392 16.6648 3.49445 16.3075 3.44476V2.33337H15.6759V3.41819C14.5343 3.49717 13.7812 4.22948 13.7812 5.29204C13.7812 6.98999 14.9907 7.18132 15.9623 7.3346C16.9896 7.49722 17.5706 7.63686 17.5706 8.62081C17.5706 9.70922 16.5813 9.87183 15.9917 9.87183C14.9086 9.87183 14.4513 9.52578 14.0269 8.92845L13.5355 9.37932C13.7859 9.75433 14.1097 10.0579 14.4812 10.2658C14.8527 10.4737 15.2618 10.5804 15.6759 10.5772V11.6667H16.3075V10.5736C17.4841 10.4645 18.2022 9.7383 18.2022 8.62081Z" fill="white"/>
<circle cx="15.8689" cy="7" r="6.5" stroke="white"/>
</g>
<path d="M4.93443 27.3334H8.21311V18H4.60656M4.93443 27.3334V32M4.93443 27.3334H1V18H4.60656M4.60656 18V13.3334" stroke="white"/>
<path d="M15.4261 35.3334H18.7048V26H15.0983M15.4261 35.3334V40M15.4261 35.3334H11.4917V26H15.0983M15.0983 26V21.3334" stroke="white"/>
<path d="M27.2296 27.3334H30.5083V18H26.9017M27.2296 27.3334V32M27.2296 27.3334H23.2952V18H26.9017M26.9017 18V13.3334" stroke="white"/>
<path d="M37.7213 35.3334H41V26H37.3934M37.7213 35.3334V40M37.7213 35.3334H33.7869V26H37.3934M37.3934 26V21.3334" stroke="white"/>
<defs>
<clipPath id="clip0_46_335">
<rect width="14" height="14" fill="white" transform="translate(8.8689)"/>
</clipPath>
</defs>
</svg>
