<svg width="235" height="117" viewBox="0 0 235 117" fill="none" xmlns="http://www.w3.org/2000/svg">
<circle r="40.5452" transform="matrix(0.768766 -0.639527 0.938229 0.346012 71.0627 41.4488)" stroke="#7000FF"/>
<g clip-path="url(#clip0_147_290)">
<path d="M68.8903 28.9775L80.3447 33.2018C80.3447 33.2018 81.484 33.622 82.9281 34.5284C81.8513 34.9091 80.8328 35.384 79.9173 35.9459C79.4081 36.2576 78.9307 36.5969 78.4929 36.9611C74.5661 40.2278 75.2677 44.3082 80.0601 46.0756C81.434 46.5823 82.9951 46.8435 84.6157 46.8815C85.9048 46.9127 87.2312 46.8019 88.5315 46.5614C88.2347 47.8241 87.7158 49.1867 86.9212 50.6532C68.68 58.9518 55.3158 54.0232 55.3158 54.0232L43.8614 49.7989C50.1186 44.5935 48.7393 36.5719 48.7393 36.5719C48.7393 36.5719 62.6331 34.1828 68.8903 28.9775Z" stroke="#B6B6DD" stroke-miterlimit="10" stroke-linecap="round" stroke-linejoin="round"/>
<path d="M94.2796 34.2466C99.0721 36.014 99.7737 40.0944 95.8469 43.3611C93.9417 44.946 91.2966 46.0477 88.5315 46.5614C87.2312 46.8019 85.9049 46.9127 84.6158 46.8815C82.9952 46.8435 81.434 46.5823 80.0602 46.0756C75.2677 44.3082 74.5661 40.2278 78.4929 36.9611C78.9307 36.5969 79.4081 36.2576 79.9174 35.9459C80.8328 35.384 81.8513 34.9091 82.9281 34.5284C84.2504 34.0613 85.6618 33.736 87.0793 33.5687L88.2022 40.1039L88.0575 40.1288L84.4602 40.7474L81.1187 41.3219L81.5407 43.7761L92.875 41.8272L92.453 39.373L91.4561 33.5712C92.4512 33.7003 93.4039 33.9236 94.2796 34.2466Z" stroke="#B6B6DD" stroke-miterlimit="10" stroke-linecap="round" stroke-linejoin="round"/>
<path d="M90.7657 29.5566L91.4561 33.5712L92.4529 39.373L92.8749 41.8272L81.5406 43.7761L81.1186 41.322L84.4602 40.7474L88.0575 40.1288L88.2022 40.1039L87.0792 33.5688L86.515 30.2875L90.7657 29.5566Z" stroke="#B6B6DD" stroke-miterlimit="10" stroke-linecap="round" stroke-linejoin="round"/>
<path d="M68.7013 31.5802L78.1191 35.0534C78.1191 35.0534 78.8887 35.3372 79.9174 35.9458C79.4082 36.2576 78.9308 36.5969 78.493 36.9611C74.5662 40.2277 75.2678 44.3082 80.0602 46.0756C81.4341 46.5823 82.9952 46.8434 84.6158 46.8815C84.3642 47.6764 84.0067 48.5159 83.5269 49.4013C68.5286 56.2243 57.541 52.1722 57.541 52.1722L48.1232 48.6989C53.2679 44.4191 52.1338 37.8237 52.1338 37.8237C52.1338 37.8237 63.5566 35.86 68.7013 31.5802Z" stroke="#B6B6DD" stroke-miterlimit="10" stroke-linecap="round" stroke-linejoin="round"/>
</g>
<circle r="41.0452" transform="matrix(0.768766 -0.639527 0.938229 0.346012 164.712 75.9852)" fill="#7000FF"/>
<path d="M142.214 84.0844C141.663 82.7181 142.348 81.2355 144.27 79.6367C146.192 78.0378 148.38 77.1187 150.835 76.8793C153.289 76.6399 156.252 77.1604 159.724 78.4406C163.176 79.714 165.141 81.02 165.617 82.3586C166.09 83.6776 165.365 85.1365 163.443 86.7353C161.537 88.3213 159.386 89.2543 156.992 89.5342C154.612 89.8012 151.696 89.2981 148.243 88.0248C144.772 86.7445 142.762 85.4311 142.214 84.0844ZM150.924 79.2383C149.415 79.2542 148.108 79.7226 147.001 80.6436C145.894 81.5645 145.61 82.4199 146.15 83.2098C146.687 83.98 148.241 84.8392 150.811 85.7872C153.382 86.7353 155.411 87.1881 156.897 87.1456C158.38 87.0833 159.66 86.6046 160.736 85.7092C161.828 84.8011 162.124 83.9688 161.625 83.2125C161.123 82.4364 159.586 81.5743 157.015 80.6262C154.444 79.6782 152.414 79.2155 150.924 79.2383ZM160.368 66.6167L178.945 73.4678L176.385 75.5975L161.355 70.0543L160.595 74.0662L157.082 74.1831L158.016 68.5737L160.368 66.6167Z" fill="white"/>
<line y1="-0.5" x2="17.724" y2="-0.5" transform="matrix(0.93825 0.345995 -0.768805 0.639513 109.573 55.6508)" stroke="#B6B6DD"/>
<defs>
<clipPath id="clip0_147_290">
<rect width="43.8437" height="43.8437" fill="white" transform="matrix(0.768763 -0.639529 0.938227 0.346013 33.5632 47.4237)"/>
</clipPath>
</defs>
</svg>
