<svg width="141" height="81" viewBox="0 0 141 81" fill="none" xmlns="http://www.w3.org/2000/svg">
<circle r="41.0452" transform="matrix(0.768766 -0.639527 0.938229 0.346012 70.0639 40.4515)" fill="#7000FF"/>
<path d="M47.5668 48.5502C47.0155 47.1838 47.7009 45.7012 49.6228 44.1024C51.5447 42.5036 53.7329 41.5845 56.1873 41.3451C58.6418 41.1057 61.6047 41.6261 65.0762 42.9064C68.5289 44.1797 70.4933 45.4857 70.9695 46.8243C71.4424 48.1433 70.7178 49.6022 68.7959 51.201C66.8894 52.787 64.7387 53.72 62.344 53.9998C59.9646 54.2669 57.0485 53.7638 53.5959 52.4905C50.1244 51.2102 48.1147 49.8968 47.5668 48.5502ZM56.2766 43.7041C54.7679 43.72 53.4601 44.1884 52.353 45.1093C51.246 46.0302 50.9625 46.8856 51.5026 47.6756C52.0392 48.4457 53.5929 49.3049 56.1637 50.253C58.7344 51.201 60.7631 51.6538 62.2496 51.6113C63.7327 51.549 65.0125 51.0702 66.0887 50.1749C67.1804 49.2668 67.4766 48.4345 66.9775 47.6782C66.475 46.9021 64.9384 46.04 62.3676 45.092C59.7969 44.1439 57.7665 43.6813 56.2766 43.7041ZM58.4934 37.8045C59.3228 36.3936 60.5909 34.9782 62.2976 33.5585C64.0042 32.1387 65.6454 31.2579 67.221 30.9159C68.7933 30.5543 70.4426 30.6917 72.1689 31.3284C72.9195 31.6052 73.472 31.9567 73.8265 32.3828C74.1963 32.7961 74.399 33.1569 74.4345 33.4654C74.4511 33.7669 74.4251 34.1265 74.3563 34.5442C75.6403 34.0393 76.7406 33.7436 77.6572 33.657C78.5704 33.5508 79.6462 33.726 80.8847 34.1827C82.855 34.9093 83.9112 35.7881 84.0533 36.8189C84.192 37.83 83.3772 39.071 81.6091 40.5419C80.9172 41.1175 80.081 41.723 79.1007 42.3583C78.139 43.0005 77.3372 43.4986 76.695 43.8526L75.7549 44.3643L73.4957 43.3373C75.5623 42.0687 77.2413 40.8972 78.5329 39.8228C80.3592 38.281 80.2872 37.1468 78.3169 36.4202C77.4162 36.088 76.4929 36.0337 75.5472 36.2572C74.6014 36.4807 73.7271 36.9152 72.9242 37.5606L69.8568 40.1123L67.2391 39.1469L70.3065 36.5952C70.8754 36.1219 71.1167 35.5833 71.0304 34.9791C70.9407 34.3553 70.4924 33.8946 69.6856 33.5971C68.8599 33.2926 68.0348 33.2467 67.2102 33.4595C66.4011 33.6596 65.6275 34.0665 64.8894 34.6805C63.6748 35.6909 62.553 36.7818 61.5242 37.9531L61.0653 38.5038L58.4934 37.8045Z" fill="white"/>
</svg>
