<svg width="141" height="81" viewBox="0 0 141 81" fill="none" xmlns="http://www.w3.org/2000/svg">
<circle r="41.0452" transform="matrix(0.768766 -0.639527 0.938229 0.346012 70.0641 40.4515)" fill="#7000FF"/>
<path d="M47.567 48.5504C47.0157 47.1841 47.701 45.7015 49.6229 44.1027C51.5448 42.5038 53.733 41.5847 56.1875 41.3453C58.6419 41.106 61.6049 41.6264 65.0763 42.9066C68.529 44.1799 70.4935 45.4859 70.9697 46.8246C71.4425 48.1435 70.718 49.6024 68.7961 51.2012C66.8895 52.7872 64.7389 53.7202 62.3441 54.0001C59.9647 54.2671 57.0487 53.764 53.596 52.4907C50.1245 51.2105 48.1149 49.897 47.567 48.5504ZM56.2768 43.7043C54.7681 43.7202 53.4602 44.1886 52.3532 45.1096C51.2461 46.0305 50.9627 46.8859 51.5027 47.6758C52.0393 48.446 53.593 49.3051 56.1638 50.2532C58.7346 51.2013 60.7632 51.654 62.2497 51.6115C63.7329 51.5493 65.0126 51.0705 66.0889 50.1751C67.1805 49.267 67.4768 48.4348 66.9777 47.6784C66.4752 46.9024 64.9385 46.0403 62.3678 45.0922C59.797 44.1441 57.7667 43.6815 56.2768 43.7043ZM86.3043 36.2647L76.5025 44.4186L73.8285 43.4325L72.8591 38.5613C72.5708 37.0889 72.2538 36.012 71.9082 35.3307C71.5626 34.6495 70.9113 34.1324 69.9543 33.7794C68.9785 33.4196 68.0613 33.349 67.2026 33.5677C66.3439 33.7864 65.4071 34.3178 64.3924 35.162C63.4391 35.955 62.5172 36.8796 61.6268 37.9357L61.1628 38.4569L58.5244 37.6777C59.4717 36.2364 60.7448 34.8506 62.3438 33.5204C65.5266 30.8727 68.8443 30.1856 72.2969 31.4589C73.648 31.9571 74.5748 32.5943 75.0773 33.3704C75.5952 34.1336 75.9351 35.2928 76.097 36.8478L76.7013 40.9751L83.5741 35.2578L86.3043 36.2647Z" fill="white"/>
</svg>
