<svg width="28" height="28" viewBox="0 0 28 28" fill="none" xmlns="http://www.w3.org/2000/svg">
<path d="M27.211 15.2432L14.8944 1.04883C14.7831 0.920388 14.6454 0.81738 14.4908 0.746782C14.3362 0.676185 14.1682 0.639648 13.9982 0.639648C13.8282 0.639648 13.6603 0.676185 13.5056 0.746782C13.351 0.81738 13.2134 0.920388 13.102 1.04883L0.78914 15.2432C0.751933 15.2859 0.727808 15.3385 0.719639 15.3946C0.71147 15.4507 0.719601 15.508 0.743063 15.5596C0.766526 15.6112 0.804331 15.655 0.851976 15.6858C0.89962 15.7165 0.955097 15.7329 1.0118 15.733H4.01766C4.18836 15.733 4.35164 15.6588 4.46668 15.5289L12.5899 6.16621V27.0625C12.5899 27.2258 12.7235 27.3594 12.8868 27.3594H15.1134C15.2766 27.3594 15.4102 27.2258 15.4102 27.0625V6.16621L23.5335 15.5289C23.6448 15.6588 23.8081 15.733 23.9825 15.733H26.9884C27.2407 15.733 27.378 15.4361 27.211 15.2432Z" fill="#D46BFE"/>
</svg>
