<svg width="934" height="547" viewBox="0 0 934 547" fill="none" xmlns="http://www.w3.org/2000/svg">
<path d="M912.942 296.457L931.052 242.36C931.412 241.285 933 241.544 933 242.678V546C933 546.552 932.552 547 932 547H2.01904C1.46676 547 1.01904 546.552 1.01904 546V478.207C1.01904 478.076 1.04461 477.947 1.0943 477.826L24.0051 422.159L40.6621 376.331C40.7019 376.221 40.7223 376.106 40.7223 375.989V315.764C40.7223 314.539 42.5032 314.389 42.7082 315.597L48.9396 352.335C49.0212 352.816 49.4378 353.168 49.9255 353.168H66.9688C67.4884 353.168 67.9214 352.77 67.9653 352.253L71.9893 304.804C72.0332 304.287 72.4662 303.889 72.9857 303.889H91.9634C92.5156 303.889 92.9634 303.441 92.9634 302.889V241.159C92.9634 240.084 94.4289 239.766 94.8738 240.745L103.145 258.951C103.307 259.308 103.663 259.538 104.056 259.538H121.5C121.929 259.538 122.311 259.264 122.448 258.857L140.796 204.369C140.933 203.962 141.314 203.688 141.744 203.688H167.471C167.901 203.688 168.283 203.413 168.419 203.005L178.123 174.019C178.359 173.312 179.258 173.103 179.782 173.633L192.137 186.12C192.658 186.646 193.55 186.444 193.793 185.744L204.988 153.477C205.283 152.625 206.466 152.569 206.841 153.388L223.795 190.408C224.135 191.15 225.173 191.195 225.575 190.484L240.122 164.755C240.563 163.975 241.728 164.124 241.959 164.99L258.984 228.934C259.259 229.966 260.743 229.906 260.934 228.855L268.217 188.783C268.347 188.069 269.17 187.726 269.768 188.138L284.812 198.486C285.064 198.659 285.222 198.938 285.243 199.243L291.417 291.457C291.452 291.982 291.888 292.39 292.415 292.39H303.017C303.57 292.39 304.017 292.838 304.017 293.39V320.165C304.017 321.166 305.324 321.546 305.861 320.702L314.92 306.46C315.438 305.645 316.696 305.965 316.761 306.929L324.37 419.066C324.449 420.241 326.141 420.336 326.351 419.178L343.298 325.925C343.456 325.056 344.581 324.803 345.095 325.522L361.511 348.462C361.961 349.091 362.923 348.993 363.238 348.287L375.76 320.163C376.167 319.249 377.514 319.433 377.662 320.422L389.297 398.158C389.433 399.073 390.633 399.327 391.129 398.546L400.897 383.189C401.381 382.429 402.543 382.646 402.721 383.528L434.475 541.096C434.698 542.204 436.3 542.149 436.447 541.028L450.292 435.3L487.714 288.216C487.827 287.773 488.226 287.462 488.683 287.462H511.982C512.534 287.462 512.982 287.015 512.982 286.462V270.112C512.982 269.682 513.256 269.301 513.662 269.164L526.928 264.695C527.335 264.558 527.609 264.176 527.609 263.747V188.261C527.609 187.709 528.057 187.261 528.609 187.261H543.458C543.956 187.261 544.378 186.895 544.448 186.401L552.262 131.116C552.397 130.163 553.669 129.932 554.13 130.777L558.483 138.761C558.744 139.24 559.342 139.421 559.825 139.168L570.382 133.636C570.95 133.338 571.648 133.645 571.813 134.265L581.786 171.898C581.881 172.255 582.164 172.53 582.523 172.615L601.872 177.178C602.406 177.304 602.942 176.976 603.073 176.443L625.453 85.2811C625.626 84.5752 626.47 84.2842 627.042 84.7333L642.393 96.8006C642.49 96.8768 642.572 96.9703 642.635 97.0763L655.939 119.488C656.393 120.252 657.545 120.088 657.768 119.227L688.051 1.7854C688.25 1.01688 689.221 0.774398 689.757 1.35967L724.875 39.7011C725.412 40.2875 726.386 40.0429 726.582 39.2723L735.752 3.2294C735.997 2.26807 737.341 2.21104 737.666 3.14819L755.031 53.2009C755.22 53.7461 755.83 54.0185 756.363 53.7954L785.798 41.4546C786.309 41.2403 786.882 41.4443 787.087 41.9593C808.282 95.2741 801.38 261.208 795.168 338.978C795.121 339.56 795.583 340.027 796.167 340.027H810.801C811.353 340.027 811.801 339.579 811.801 339.027V293.39C811.801 292.838 812.248 292.39 812.801 292.39H837.966C838.518 292.39 838.966 291.943 838.966 291.39V207.488C838.966 206.46 840.331 206.101 840.837 206.996L855.568 233.051C855.644 233.185 855.688 233.335 855.696 233.489L859.431 302.495C859.495 303.67 861.182 303.789 861.411 302.635L872.509 246.551C872.744 245.365 874.49 245.536 874.49 246.745V408.868C874.49 409.868 875.797 410.249 876.334 409.405L891.066 386.243C891.158 386.098 891.212 385.93 891.221 385.758L897.252 268.803C897.307 267.743 898.757 267.487 899.172 268.464L911.073 296.53C911.432 297.378 912.649 297.33 912.942 296.457Z" fill="url(#paint0_linear_32_151)"/>
<path d="M933 236.541L912.942 296.457C912.649 297.33 911.432 297.378 911.073 296.53L899.172 268.464C898.757 267.487 897.307 267.743 897.252 268.803L891.221 385.758C891.212 385.93 891.158 386.098 891.066 386.243L876.334 409.405C875.797 410.249 874.49 409.868 874.49 408.868V246.745C874.49 245.536 872.744 245.365 872.509 246.551L861.411 302.635C861.182 303.789 859.495 303.67 859.431 302.495L855.696 233.489C855.688 233.335 855.644 233.185 855.568 233.051L840.837 206.996C840.331 206.101 838.966 206.46 838.966 207.488V291.39C838.966 291.943 838.518 292.39 837.966 292.39H812.801C812.248 292.39 811.801 292.838 811.801 293.39V339.027C811.801 339.579 811.353 340.027 810.801 340.027H796.167C795.583 340.027 795.121 339.56 795.168 338.978C801.38 261.208 808.282 95.2741 787.087 41.9593C786.882 41.4443 786.309 41.2403 785.798 41.4546L756.363 53.7954C755.83 54.0185 755.22 53.7461 755.031 53.2009L737.666 3.14819C737.341 2.21104 735.996 2.26807 735.752 3.2294L726.582 39.2723C726.386 40.0429 725.412 40.2875 724.875 39.7011L689.757 1.35967C689.221 0.774398 688.25 1.01688 688.051 1.7854L657.768 119.227C657.545 120.088 656.394 120.252 655.939 119.488L642.635 97.0763C642.572 96.9703 642.49 96.8768 642.393 96.8006L627.042 84.7333C626.47 84.2842 625.626 84.5752 625.453 85.2811L603.073 176.443C602.942 176.976 602.406 177.304 601.872 177.178L582.523 172.615C582.164 172.53 581.881 172.255 581.786 171.898L571.813 134.265C571.648 133.645 570.95 133.338 570.382 133.636L559.825 139.168C559.342 139.421 558.744 139.24 558.483 138.761L554.13 130.777C553.669 129.932 552.397 130.163 552.262 131.116L544.448 186.401C544.378 186.895 543.956 187.261 543.458 187.261H528.609C528.057 187.261 527.609 187.709 527.609 188.261V263.747C527.609 264.176 527.335 264.558 526.928 264.695L513.662 269.164C513.256 269.301 512.982 269.682 512.982 270.112V286.462C512.982 287.015 512.534 287.462 511.982 287.462H488.683C488.226 287.462 487.827 287.773 487.714 288.216L450.292 435.3L436.447 541.028C436.3 542.149 434.698 542.204 434.475 541.096L402.721 383.528C402.543 382.646 401.381 382.429 400.897 383.189L391.129 398.546C390.633 399.327 389.433 399.073 389.297 398.158L377.662 320.422C377.514 319.433 376.167 319.249 375.76 320.163L363.238 348.287C362.923 348.994 361.961 349.091 361.511 348.463L345.095 325.522C344.581 324.803 343.456 325.056 343.298 325.925L326.351 419.178C326.141 420.336 324.449 420.241 324.37 419.066L316.761 306.929C316.696 305.965 315.438 305.645 314.92 306.46L305.861 320.702C305.324 321.546 304.017 321.166 304.017 320.165V293.39C304.017 292.838 303.57 292.39 303.017 292.39H292.415C291.888 292.39 291.452 291.982 291.417 291.457L285.243 199.243C285.222 198.938 285.064 198.659 284.812 198.486L269.768 188.138C269.17 187.726 268.347 188.069 268.217 188.783L260.934 228.855C260.743 229.906 259.259 229.966 258.984 228.934L241.959 164.99C241.728 164.124 240.563 163.975 240.122 164.755L225.575 190.484C225.173 191.195 224.135 191.15 223.795 190.408L206.841 153.388C206.466 152.569 205.283 152.625 204.987 153.477L193.793 185.744C193.55 186.444 192.658 186.646 192.137 186.12L179.782 173.633C179.258 173.103 178.359 173.312 178.123 174.019L168.419 203.005C168.283 203.413 167.901 203.688 167.471 203.688H141.744C141.314 203.688 140.933 203.962 140.796 204.369L122.448 258.857C122.311 259.264 121.929 259.538 121.5 259.538H104.056C103.663 259.538 103.307 259.308 103.145 258.951L94.8738 240.746C94.4289 239.766 92.9634 240.084 92.9634 241.159V302.889C92.9634 303.441 92.5156 303.889 91.9634 303.889H72.9857C72.4662 303.889 72.0332 304.287 71.9893 304.804L67.9653 352.253C67.9214 352.77 67.4884 353.168 66.9689 353.168H49.9255C49.4378 353.168 49.0212 352.816 48.9396 352.335L42.7082 315.597C42.5032 314.389 40.7223 314.539 40.7223 315.764V375.989C40.7223 376.106 40.7019 376.221 40.6621 376.331L24.0051 422.159L1.01904 478.009" stroke="#D46BFE" stroke-width="2"/>
<defs>
<linearGradient id="paint0_linear_32_151" x1="467.009" y1="-251.852" x2="467.009" y2="547" gradientUnits="userSpaceOnUse">
<stop stop-color="#D46BFE"/>
<stop offset="1" stop-color="#282838" stop-opacity="0"/>
<stop offset="1" stop-color="#C4C4C4" stop-opacity="0"/>
</linearGradient>
</defs>
</svg>
