<svg width="25" height="24" viewBox="0 0 25 24" fill="none" xmlns="http://www.w3.org/2000/svg">
<path fill-rule="evenodd" clip-rule="evenodd" d="M8.12992 1.066C9.30292 1.012 9.67692 1 12.6649 1C15.6529 1 16.0269 1.013 17.1989 1.066C18.3709 1.119 19.1709 1.306 19.8709 1.577C20.6039 1.854 21.2689 2.287 21.8189 2.847C22.3789 3.396 22.8109 4.06 23.0869 4.794C23.3589 5.494 23.5449 6.294 23.5989 7.464C23.6529 8.639 23.6649 9.013 23.6649 12C23.6649 14.988 23.6519 15.362 23.5989 16.535C23.5459 17.705 23.3589 18.505 23.0869 19.205C22.8109 19.9391 22.3782 20.6042 21.8189 21.154C21.2689 21.714 20.6039 22.146 19.8709 22.422C19.1709 22.694 18.3709 22.88 17.2009 22.934C16.0269 22.988 15.6529 23 12.6649 23C9.67692 23 9.30292 22.987 8.12992 22.934C6.95992 22.881 6.15992 22.694 5.45992 22.422C4.72584 22.146 4.06074 21.7133 3.51092 21.154C2.9513 20.6047 2.51823 19.9399 2.24192 19.206C1.97092 18.506 1.78492 17.706 1.73092 16.536C1.67692 15.361 1.66492 14.987 1.66492 12C1.66492 9.012 1.67792 8.638 1.73092 7.466C1.78392 6.294 1.97092 5.494 2.24192 4.794C2.51864 4.06008 2.95204 3.39531 3.51192 2.846C4.06096 2.2865 4.72539 1.85344 5.45892 1.577C6.15892 1.306 6.95892 1.12 8.12892 1.066H8.12992ZM17.1099 3.046C15.9499 2.993 15.6019 2.982 12.6649 2.982C9.72792 2.982 9.37992 2.993 8.21992 3.046C7.14692 3.095 6.56492 3.274 6.17692 3.425C5.66392 3.625 5.29692 3.862 4.91192 4.247C4.54696 4.60205 4.2661 5.03428 4.08992 5.512C3.93892 5.9 3.75992 6.482 3.71092 7.555C3.65792 8.715 3.64692 9.063 3.64692 12C3.64692 14.937 3.65792 15.285 3.71092 16.445C3.75992 17.518 3.93892 18.1 4.08992 18.488C4.26592 18.965 4.54692 19.398 4.91192 19.753C5.26692 20.118 5.69992 20.399 6.17692 20.575C6.56492 20.726 7.14692 20.905 8.21992 20.954C9.37992 21.007 9.72692 21.018 12.6649 21.018C15.6029 21.018 15.9499 21.007 17.1099 20.954C18.1829 20.905 18.7649 20.726 19.1529 20.575C19.6659 20.375 20.0329 20.138 20.4179 19.753C20.7829 19.398 21.0639 18.965 21.2399 18.488C21.3909 18.1 21.5699 17.518 21.6189 16.445C21.6719 15.285 21.6829 14.937 21.6829 12C21.6829 9.063 21.6719 8.715 21.6189 7.555C21.5699 6.482 21.3909 5.9 21.2399 5.512C21.0399 4.999 20.8029 4.632 20.4179 4.247C20.0628 3.88207 19.6306 3.60121 19.1529 3.425C18.7649 3.274 18.1829 3.095 17.1099 3.046ZM11.2599 15.391C12.0446 15.7176 12.9183 15.7617 13.7318 15.5157C14.5454 15.2697 15.2483 14.7489 15.7205 14.0422C16.1927 13.3356 16.405 12.4869 16.321 11.6411C16.237 10.7953 15.8619 10.005 15.2599 9.405C14.8762 9.02148 14.4121 8.72781 13.9012 8.54515C13.3904 8.36248 12.8453 8.29536 12.3054 8.34862C11.7655 8.40187 11.2441 8.57418 10.7787 8.85313C10.3134 9.13208 9.91566 9.51074 9.61422 9.96185C9.31278 10.413 9.11511 10.9253 9.03543 11.462C8.95576 11.9986 8.99607 12.5463 9.15346 13.0655C9.31084 13.5847 9.5814 14.0626 9.94564 14.4647C10.3099 14.8668 10.7587 15.1832 11.2599 15.391ZM8.66692 8.002C9.19194 7.47697 9.81524 7.0605 10.5012 6.77636C11.1872 6.49222 11.9224 6.34597 12.6649 6.34597C13.4074 6.34597 14.1426 6.49222 14.8286 6.77636C15.5146 7.0605 16.1379 7.47697 16.6629 8.002C17.1879 8.52702 17.6044 9.15032 17.8886 9.8363C18.1727 10.5223 18.3189 11.2575 18.3189 12C18.3189 12.7425 18.1727 13.4777 17.8886 14.1637C17.6044 14.8497 17.1879 15.473 16.6629 15.998C15.6026 17.0583 14.1645 17.654 12.6649 17.654C11.1654 17.654 9.72725 17.0583 8.66692 15.998C7.60658 14.9377 7.01089 13.4995 7.01089 12C7.01089 10.5005 7.60658 9.06234 8.66692 8.002ZM19.5729 7.188C19.703 7.06527 19.8072 6.91768 19.8792 6.75397C19.9513 6.59027 19.9897 6.41377 19.9923 6.23493C19.9949 6.05609 19.9616 5.87855 19.8944 5.71281C19.8272 5.54707 19.7274 5.39651 19.6009 5.27004C19.4744 5.14357 19.3238 5.04376 19.1581 4.97652C18.9924 4.90928 18.8148 4.87598 18.636 4.87858C18.4571 4.88119 18.2807 4.91965 18.1169 4.9917C17.9532 5.06374 17.8056 5.1679 17.6829 5.298C17.4442 5.55103 17.3135 5.88712 17.3186 6.23493C17.3237 6.58274 17.4641 6.91488 17.7101 7.16084C17.956 7.40681 18.2882 7.54723 18.636 7.5523C18.9838 7.55737 19.3199 7.42669 19.5729 7.188Z" fill="#B6B6DD"/>
</svg>
