<svg width="25" height="18" viewBox="0 0 25 18" fill="none" xmlns="http://www.w3.org/2000/svg">
<path d="M24.1649 3.50695C24.029 3.02219 23.7643 2.5833 23.3989 2.23695C23.0232 1.87996 22.5627 1.62459 22.0609 1.49495C20.1829 0.999954 12.6589 0.999954 12.6589 0.999954C9.52225 0.964267 6.38635 1.12123 3.26892 1.46995C2.76711 1.60917 2.30749 1.87024 1.93092 2.22995C1.56092 2.58595 1.29292 3.02495 1.15292 3.50595C0.816617 5.3177 0.653216 7.1573 0.664924 8.99995C0.652924 10.841 0.815924 12.68 1.15292 14.494C1.28992 14.973 1.55692 15.41 1.92792 15.763C2.29892 16.116 2.76092 16.371 3.26892 16.506C5.17192 17 12.6589 17 12.6589 17C15.7996 17.0357 18.9395 16.8787 22.0609 16.53C22.5627 16.4003 23.0232 16.145 23.3989 15.788C23.7642 15.4417 24.0286 15.0027 24.1639 14.518C24.509 12.7069 24.6768 10.8665 24.6649 9.02295C24.6909 7.17156 24.5233 5.32252 24.1649 3.50595V3.50695ZM10.2669 12.424V5.57695L16.5269 9.00095L10.2669 12.424Z" fill="#B6B6DD"/>
</svg>
