<svg width="22" height="26" viewBox="0 0 22 26" fill="none" xmlns="http://www.w3.org/2000/svg">
<path d="M21.5389 20.2619C21.1439 21.1703 20.6764 22.0064 20.1347 22.7752C19.3963 23.8231 18.7917 24.5485 18.3258 24.9514C17.6036 25.6126 16.8297 25.9512 16.001 25.9705C15.4061 25.9705 14.6887 25.802 13.8536 25.4601C13.0157 25.1199 12.2457 24.9514 11.5417 24.9514C10.8033 24.9514 10.0114 25.1199 9.16436 25.4601C8.31602 25.802 7.63261 25.9801 7.11009 25.9978C6.31545 26.0315 5.52339 25.6832 4.73277 24.9514C4.22814 24.5132 3.59698 23.7621 2.84084 22.6981C2.02959 21.5618 1.36264 20.2442 0.840114 18.742C0.280522 17.1195 0 15.5483 0 14.0272C0 12.2848 0.378224 10.782 1.13579 9.52263C1.73118 8.51107 2.52325 7.71311 3.51459 7.12735C4.50591 6.54156 5.57707 6.24303 6.73059 6.22396C7.36177 6.22396 8.18946 6.4183 9.21804 6.80027C10.2437 7.18352 10.9023 7.37786 11.191 7.37786C11.4069 7.37786 12.1385 7.15061 13.3788 6.69755C14.5517 6.2774 15.5415 6.1034 16.3525 6.17195C18.5499 6.34848 20.2008 7.21079 21.2987 8.76433C19.3334 9.94971 18.3613 11.6099 18.3806 13.7398C18.3984 15.3988 19.0029 16.7793 20.1911 17.8754C20.7296 18.3842 21.3309 18.7774 22 19.0566C21.8549 19.4755 21.7017 19.8767 21.5389 20.2619V20.2619ZM16.4992 0.520154C16.4992 1.82044 16.022 3.03453 15.0708 4.15828C13.9229 5.4942 12.5345 6.26614 11.0289 6.14433C11.0087 5.98086 10.9986 5.81632 10.9985 5.65162C10.9985 4.40334 11.5444 3.06742 12.5139 1.97515C12.9978 1.4221 13.6134 0.962256 14.3598 0.595426C15.1046 0.234071 15.8092 0.0342302 16.4718 0C16.4912 0.173823 16.4992 0.347667 16.4992 0.520132V0.520154Z" fill="white"/>
</svg>
