<svg width="28" height="28" viewBox="0 0 28 28" fill="none" xmlns="http://www.w3.org/2000/svg">
<path d="M14 2.33334C7.56704 2.33334 2.33337 7.56701 2.33337 14V18.8335C2.33337 20.0282 3.37987 21 4.66671 21H5.83337C6.14279 21 6.43954 20.8771 6.65833 20.6583C6.87712 20.4395 7.00004 20.1428 7.00004 19.8333V13.8332C7.00004 13.5238 6.87712 13.227 6.65833 13.0082C6.43954 12.7894 6.14279 12.6665 5.83337 12.6665H4.77404C5.42271 8.15151 9.30771 4.66668 14 4.66668C18.6924 4.66668 22.5774 8.15151 23.226 12.6665H22.1667C21.8573 12.6665 21.5605 12.7894 21.3417 13.0082C21.123 13.227 21 13.5238 21 13.8332V21C21 22.2868 19.9535 23.3333 18.6667 23.3333H16.3334V22.1667H11.6667V25.6667H18.6667C21.2404 25.6667 23.3334 23.5737 23.3334 21C24.6202 21 25.6667 20.0282 25.6667 18.8335V14C25.6667 7.56701 20.433 2.33334 14 2.33334Z" stroke="white"/>
</svg>
