<svg width="30" height="30" viewBox="0 0 30 30" fill="none" xmlns="http://www.w3.org/2000/svg">
<path d="M21.0938 10.9102V9.84375C21.0938 7.21875 16.7695 5.15625 11.25 5.15625C5.73047 5.15625 1.40625 7.21875 1.40625 9.84375V14.5312C1.40625 16.7695 4.55859 18.5977 8.90625 19.0898V20.1562C8.90625 22.7812 13.2305 24.8438 18.75 24.8438C24.2695 24.8438 28.5938 22.7812 28.5938 20.1562V15.4688C28.5938 13.2539 25.5352 11.4141 21.0938 10.9102ZM27.6562 15.4688C27.6562 17.2852 24.082 19.2188 18.75 19.2188C17.6507 19.2202 16.5531 19.1301 15.4688 18.9492V18.7852C18.8203 18.0469 21.0938 16.4414 21.0938 14.5312V11.8594C24.8672 12.3047 27.6562 13.8164 27.6562 15.4688ZM9.41016 18.1992H9.375C8.88281 18.1523 8.41406 18.0938 7.96875 18.0117V14.2734C9.05392 14.4464 10.1511 14.5326 11.25 14.5312C12.3489 14.5326 13.4461 14.4464 14.5312 14.2734V18.0117C13.4474 18.1965 12.3495 18.2867 11.25 18.2812C10.6055 18.2812 9.99609 18.2578 9.41016 18.1992ZM20.1562 11.8711V14.5312C20.1562 15.8086 18.375 17.1445 15.4688 17.8242V14.0977C17.5312 13.6406 19.1953 12.8555 20.1562 11.8711ZM11.25 6.09375C16.582 6.09375 20.1562 8.02734 20.1562 9.84375C20.1562 11.6602 16.582 13.5938 11.25 13.5938C5.91797 13.5938 2.34375 11.6602 2.34375 9.84375C2.34375 8.02734 5.91797 6.09375 11.25 6.09375ZM2.34375 14.5312V11.8711C3.30469 12.8555 4.96875 13.6406 7.03125 14.0977V17.8242C4.125 17.1445 2.34375 15.8086 2.34375 14.5312ZM9.84375 20.1562V19.1719C10.3008 19.207 10.7695 19.2188 11.25 19.2188C11.7305 19.2188 12.1992 19.207 12.6562 19.1719C13.2675 19.3963 13.8941 19.5764 14.5312 19.7109V23.4492C11.625 22.7695 9.84375 21.4336 9.84375 20.1562ZM15.4688 23.6367V19.8984C16.5542 20.069 17.6512 20.1552 18.75 20.1562C19.8489 20.1576 20.9461 20.0714 22.0312 19.8984V23.6367C19.8585 23.9961 17.6415 23.9961 15.4688 23.6367ZM27.6562 20.1562C27.6562 21.4336 25.875 22.7695 22.9688 23.4492V19.7227C25.0312 19.2656 26.6953 18.4805 27.6562 17.4961V20.1562Z" fill="white"/>
</svg>
