<svg width="32" height="32" viewBox="0 0 32 32" fill="none" xmlns="http://www.w3.org/2000/svg">
<path d="M19.9999 24V25C19.9999 26.0609 19.5785 27.0783 18.8284 27.8284C18.0782 28.5786 17.0608 29 15.9999 29C14.9391 29 13.9217 28.5786 13.1715 27.8284C12.4214 27.0783 11.9999 26.0609 11.9999 25V24M26.7299 21.9644C25.1249 20 23.9918 19 23.9918 13.5844C23.9918 8.625 21.4593 6.85812 19.3749 6C19.0981 5.88625 18.8374 5.625 18.7531 5.34062C18.3874 4.09625 17.3624 3 15.9999 3C14.6374 3 13.6118 4.09688 13.2499 5.34188C13.1656 5.62938 12.9049 5.88625 12.6281 6C10.5412 6.85938 8.01119 8.62 8.01119 13.5844C8.00807 19 6.87494 20 5.26994 21.9644C4.60494 22.7781 5.18744 24 6.35057 24H25.6556C26.8124 24 27.3912 22.7744 26.7299 21.9644Z" stroke="white" stroke-linecap="round" stroke-linejoin="round"/>
</svg>
