<svg width="26" height="26" viewBox="0 0 26 26" fill="none" xmlns="http://www.w3.org/2000/svg">
<path fill-rule="evenodd" clip-rule="evenodd" d="M11.5858 3.58571C11.9609 3.21063 12.4696 2.99992 13 2.99992C13.5304 2.99992 14.0391 3.21063 14.4142 3.58571C14.6272 3.79866 14.7871 4.0547 14.8856 4.33333H11.1144C11.2129 4.0547 11.3728 3.79866 11.5858 3.58571ZM10.075 4.33333C10.1996 3.78676 10.476 3.28132 10.8787 2.8786C11.4413 2.31599 12.2044 1.99992 13 1.99992C13.7956 1.99992 14.5587 2.31599 15.1213 2.8786C15.524 3.28132 15.8004 3.78676 15.925 4.33333H20.75C21.8546 4.33333 22.75 5.22877 22.75 6.33333V21.8333C22.75 22.9379 21.8546 23.8333 20.75 23.8333H5.25C4.14543 23.8333 3.25 22.9379 3.25 21.8333V6.33333C3.25 5.22877 4.14543 4.33333 5.25 4.33333H10.075ZM4.25 6.33333C4.25 5.78105 4.69772 5.33333 5.25 5.33333H20.75C21.3023 5.33333 21.75 5.78105 21.75 6.33333V21.8333C21.75 22.3856 21.3023 22.8333 20.75 22.8333H5.25C4.69772 22.8333 4.25 22.3856 4.25 21.8333V6.33333ZM17.3378 13.8973L14.6272 16.6079L15.3343 17.315L18.3984 14.2509L18.752 13.8973L18.3984 13.5438L15.3343 10.4797L14.6272 11.1868L17.3378 13.8973ZM11.001 11.1869L8.29038 13.8975L11.001 16.608L10.2938 17.3151L7.22972 14.251L6.87616 13.8975L7.22972 13.5439L10.2938 10.4798L11.001 11.1869Z" fill="white"/>
</svg>
